<?xml version="1.0" encoding="UTF-8" standalone="no"?><svg xmlns="http://www.w3.org/2000/svg" xmlns:xlink="http://www.w3.org/1999/xlink" contentStyleType="text/css" height="831px" preserveAspectRatio="none" style="width:812px;height:831px;background:#FFFFFF;" version="1.1" viewBox="0 0 812 831" width="812px" zoomAndPan="magnify"><defs/><g><rect fill="#FFFFFF" height="649.7891" style="stroke:#181818;stroke-width:1.0;" width="10" x="34" y="91.2969"/><rect fill="#FFFFFF" height="29.1328" style="stroke:#181818;stroke-width:1.0;" width="10" x="184" y="112.4297"/><rect fill="#FFFFFF" height="453.1875" style="stroke:#181818;stroke-width:1.0;" width="10" x="184" y="170.6953"/><rect fill="#FFFFFF" height="497.125" style="stroke:#181818;stroke-width:1.0;" width="10" x="307" y="199.8281"/><rect fill="#FFFFFF" height="283.3906" style="stroke:#181818;stroke-width:1.0;" width="10" x="456" y="311.3594"/><rect fill="#FFFFFF" height="40.1328" style="stroke:#181818;stroke-width:1.0;" width="10" x="461" y="348.4922"/><rect fill="#FFFFFF" height="53.2656" style="stroke:#181818;stroke-width:1.0;" width="10" x="581" y="228.9609"/><rect fill="#FFFFFF" height="29.1328" style="stroke:#181818;stroke-width:1.0;" width="10" x="581" y="536.4844"/><rect fill="#FFFFFF" height="72.5938" style="stroke:#181818;stroke-width:1.0;" width="10" x="680" y="434.7578"/><rect fill="#FFFFFF" height="266.0313" style="stroke:#181818;stroke-width:1.0;" width="10" x="765" y="476.0547"/><rect fill="none" height="490.125" style="stroke:#000000;stroke-width:1.5;" width="795.5" x="10" y="243.9609"/><line style="stroke:#181818;stroke-width:0.5;stroke-dasharray:5.0,5.0;" x1="39" x2="39" y1="81.2969" y2="751.0859"/><line style="stroke:#181818;stroke-width:0.5;stroke-dasharray:5.0,5.0;" x1="189" x2="189" y1="81.2969" y2="751.0859"/><line style="stroke:#181818;stroke-width:0.5;stroke-dasharray:5.0,5.0;" x1="312" x2="312" y1="81.2969" y2="751.0859"/><line style="stroke:#181818;stroke-width:0.5;stroke-dasharray:5.0,5.0;" x1="460.5" x2="460.5" y1="81.2969" y2="751.0859"/><line style="stroke:#181818;stroke-width:0.5;stroke-dasharray:5.0,5.0;" x1="585.5" x2="585.5" y1="81.2969" y2="751.0859"/><line style="stroke:#181818;stroke-width:0.5;stroke-dasharray:5.0,5.0;" x1="684.5" x2="684.5" y1="434.2734" y2="751.0859"/><line style="stroke:#181818;stroke-width:0.5;stroke-dasharray:5.0,5.0;" x1="769.5" x2="769.5" y1="475.5703" y2="751.0859"/><text fill="#000000" font-family="sans-serif" font-size="14" lengthAdjust="spacing" textLength="32" x="20" y="77.9951">User</text><ellipse cx="39" cy="13.5" fill="#E2E2F0" rx="8" ry="8" style="stroke:#181818;stroke-width:0.5;"/><path d="M39,21.5 L39,48.5 M26,29.5 L52,29.5 M39,48.5 L26,63.5 M39,48.5 L52,63.5 " fill="none" style="stroke:#181818;stroke-width:0.5;"/><text fill="#000000" font-family="sans-serif" font-size="14" lengthAdjust="spacing" textLength="32" x="20" y="763.0811">User</text><ellipse cx="39" cy="774.8828" fill="#E2E2F0" rx="8" ry="8" style="stroke:#181818;stroke-width:0.5;"/><path d="M39,782.8828 L39,809.8828 M26,790.8828 L52,790.8828 M39,809.8828 L26,824.8828 M39,809.8828 L52,824.8828 " fill="none" style="stroke:#181818;stroke-width:0.5;"/><rect fill="#E2E2F0" height="30.2969" rx="2.5" ry="2.5" style="stroke:#181818;stroke-width:0.5;" width="70" x="154" y="50"/><text fill="#000000" font-family="sans-serif" font-size="14" lengthAdjust="spacing" textLength="56" x="161" y="69.9951">Website</text><rect fill="#E2E2F0" height="30.2969" rx="2.5" ry="2.5" style="stroke:#181818;stroke-width:0.5;" width="70" x="154" y="750.0859"/><text fill="#000000" font-family="sans-serif" font-size="14" lengthAdjust="spacing" textLength="56" x="161" y="770.0811">Website</text><rect fill="#E2E2F0" height="30.2969" rx="2.5" ry="2.5" style="stroke:#181818;stroke-width:0.5;" width="122" x="251" y="50"/><text fill="#000000" font-family="sans-serif" font-size="14" lengthAdjust="spacing" textLength="108" x="258" y="69.9951">:EmailResource</text><rect fill="#E2E2F0" height="30.2969" rx="2.5" ry="2.5" style="stroke:#181818;stroke-width:0.5;" width="122" x="251" y="750.0859"/><text fill="#000000" font-family="sans-serif" font-size="14" lengthAdjust="spacing" textLength="108" x="258" y="770.0811">:EmailResource</text><rect fill="#E2E2F0" height="30.2969" rx="2.5" ry="2.5" style="stroke:#181818;stroke-width:0.5;" width="151" x="385.5" y="50"/><text fill="#000000" font-family="sans-serif" font-size="14" lengthAdjust="spacing" textLength="137" x="392.5" y="69.9951">:UserCrudResource</text><rect fill="#E2E2F0" height="30.2969" rx="2.5" ry="2.5" style="stroke:#181818;stroke-width:0.5;" width="151" x="385.5" y="750.0859"/><text fill="#000000" font-family="sans-serif" font-size="14" lengthAdjust="spacing" textLength="137" x="392.5" y="770.0811">:UserCrudResource</text><rect fill="#E2E2F0" height="30.2969" rx="2.5" ry="2.5" style="stroke:#181818;stroke-width:0.5;" width="79" x="546.5" y="50"/><text fill="#000000" font-family="sans-serif" font-size="14" lengthAdjust="spacing" textLength="65" x="553.5" y="69.9951">:UserDao</text><rect fill="#E2E2F0" height="30.2969" rx="2.5" ry="2.5" style="stroke:#181818;stroke-width:0.5;" width="79" x="546.5" y="750.0859"/><text fill="#000000" font-family="sans-serif" font-size="14" lengthAdjust="spacing" textLength="65" x="553.5" y="770.0811">:UserDao</text><rect fill="#E2E2F0" height="30.2969" rx="2.5" ry="2.5" style="stroke:#181818;stroke-width:0.5;" width="99" x="635.5" y="750.0859"/><text fill="#000000" font-family="sans-serif" font-size="14" lengthAdjust="spacing" textLength="85" x="642.5" y="770.0811">:UserBuilder</text><rect fill="#E2E2F0" height="30.2969" rx="2.5" ry="2.5" style="stroke:#181818;stroke-width:0.5;" width="51" x="744.5" y="750.0859"/><text fill="#000000" font-family="sans-serif" font-size="14" lengthAdjust="spacing" textLength="37" x="751.5" y="770.0811">:User</text><rect fill="#FFFFFF" height="649.7891" style="stroke:#181818;stroke-width:1.0;" width="10" x="34" y="91.2969"/><rect fill="#FFFFFF" height="29.1328" style="stroke:#181818;stroke-width:1.0;" width="10" x="184" y="112.4297"/><rect fill="#FFFFFF" height="453.1875" style="stroke:#181818;stroke-width:1.0;" width="10" x="184" y="170.6953"/><rect fill="#FFFFFF" height="497.125" style="stroke:#181818;stroke-width:1.0;" width="10" x="307" y="199.8281"/><rect fill="#FFFFFF" height="283.3906" style="stroke:#181818;stroke-width:1.0;" width="10" x="456" y="311.3594"/><rect fill="#FFFFFF" height="40.1328" style="stroke:#181818;stroke-width:1.0;" width="10" x="461" y="348.4922"/><rect fill="#FFFFFF" height="53.2656" style="stroke:#181818;stroke-width:1.0;" width="10" x="581" y="228.9609"/><rect fill="#FFFFFF" height="29.1328" style="stroke:#181818;stroke-width:1.0;" width="10" x="581" y="536.4844"/><rect fill="#FFFFFF" height="72.5938" style="stroke:#181818;stroke-width:1.0;" width="10" x="680" y="434.7578"/><rect fill="#FFFFFF" height="266.0313" style="stroke:#181818;stroke-width:1.0;" width="10" x="765" y="476.0547"/><polygon fill="#181818" points="172,108.4297,182,112.4297,172,116.4297,176,112.4297" style="stroke:#181818;stroke-width:1.0;"/><line style="stroke:#181818;stroke-width:1.0;" x1="44" x2="178" y1="112.4297" y2="112.4297"/><text fill="#000000" font-family="sans-serif" font-size="13" lengthAdjust="spacing" textLength="52" x="51" y="107.3638">Register</text><polygon fill="#181818" points="55,137.5625,45,141.5625,55,145.5625,51,141.5625" style="stroke:#181818;stroke-width:1.0;"/><line style="stroke:#181818;stroke-width:1.0;stroke-dasharray:2.0,2.0;" x1="49" x2="188" y1="141.5625" y2="141.5625"/><text fill="#000000" font-family="sans-serif" font-size="13" lengthAdjust="spacing" textLength="88" x="61" y="136.4966">Register Page</text><polygon fill="#181818" points="172,166.6953,182,170.6953,172,174.6953,176,170.6953" style="stroke:#181818;stroke-width:1.0;"/><line style="stroke:#181818;stroke-width:1.0;" x1="44" x2="178" y1="170.6953" y2="170.6953"/><text fill="#000000" font-family="sans-serif" font-size="13" lengthAdjust="spacing" textLength="44" x="51" y="165.6294">Details</text><polygon fill="#181818" points="295,195.8281,305,199.8281,295,203.8281,299,199.8281" style="stroke:#181818;stroke-width:1.0;"/><line style="stroke:#181818;stroke-width:1.0;" x1="194" x2="301" y1="199.8281" y2="199.8281"/><text fill="#000000" font-family="sans-serif" font-size="13" lengthAdjust="spacing" textLength="83" x="201" y="194.7622">/check_email</text><polygon fill="#181818" points="569,224.9609,579,228.9609,569,232.9609,573,228.9609" style="stroke:#181818;stroke-width:1.0;"/><line style="stroke:#181818;stroke-width:1.0;" x1="317" x2="575" y1="228.9609" y2="228.9609"/><text fill="#000000" font-family="sans-serif" font-size="13" lengthAdjust="spacing" textLength="126" x="324" y="223.895">isEmailInUse(email)</text><path d="M10,243.9609 L74,243.9609 L74,251.0938 L64,261.0938 L10,261.0938 L10,243.9609 " fill="#EEEEEE" style="stroke:#000000;stroke-width:1.5;"/><rect fill="none" height="490.125" style="stroke:#000000;stroke-width:1.5;" width="795.5" x="10" y="243.9609"/><text fill="#000000" font-family="sans-serif" font-size="13" font-weight="bold" lengthAdjust="spacing" textLength="19" x="25" y="257.0278">alt</text><text fill="#000000" font-family="sans-serif" font-size="11" font-weight="bold" lengthAdjust="spacing" textLength="75" x="89" y="256.1714">[Not in use]</text><polygon fill="#181818" points="328,278.2266,318,282.2266,328,286.2266,324,282.2266" style="stroke:#181818;stroke-width:1.0;"/><line style="stroke:#181818;stroke-width:1.0;stroke-dasharray:2.0,2.0;" x1="322" x2="585" y1="282.2266" y2="282.2266"/><text fill="#000000" font-family="sans-serif" font-size="13" lengthAdjust="spacing" textLength="33" x="334" y="277.1606">False</text><polygon fill="#181818" points="444,307.3594,454,311.3594,444,315.3594,448,311.3594" style="stroke:#181818;stroke-width:1.0;"/><line style="stroke:#181818;stroke-width:1.0;" x1="194" x2="450" y1="311.3594" y2="311.3594"/><text fill="#000000" font-family="sans-serif" font-size="13" lengthAdjust="spacing" textLength="59" x="201" y="306.2935">register()</text><line style="stroke:#181818;stroke-width:1.0;" x1="466" x2="513" y1="335.4922" y2="335.4922"/><line style="stroke:#181818;stroke-width:1.0;" x1="513" x2="513" y1="335.4922" y2="348.4922"/><line style="stroke:#181818;stroke-width:1.0;" x1="472" x2="513" y1="348.4922" y2="348.4922"/><polygon fill="#181818" points="482,344.4922,472,348.4922,482,352.4922,478,348.4922" style="stroke:#181818;stroke-width:1.0;"/><text fill="#000000" font-family="sans-serif" font-size="13" lengthAdjust="spacing" textLength="63" x="478" y="330.4263">Validation</text><line style="stroke:#181818;stroke-width:1.0;stroke-dasharray:2.0,2.0;" x1="429" x2="471" y1="387.625" y2="387.625"/><line style="stroke:#181818;stroke-width:1.0;stroke-dasharray:2.0,2.0;" x1="429" x2="429" y1="387.625" y2="400.625"/><line style="stroke:#181818;stroke-width:1.0;stroke-dasharray:2.0,2.0;" x1="429" x2="476" y1="400.625" y2="400.625"/><polygon fill="#181818" points="456,396.625,466,400.625,456,404.625,460,400.625" style="stroke:#181818;stroke-width:1.0;"/><text fill="#000000" font-family="sans-serif" font-size="13" lengthAdjust="spacing" textLength="120" x="351" y="382.5591">Validation Success</text><polygon fill="#181818" points="623.5,420.7578,633.5,424.7578,623.5,428.7578,627.5,424.7578" style="stroke:#181818;stroke-width:1.0;"/><line style="stroke:#181818;stroke-width:1.0;" x1="466" x2="629.5" y1="424.7578" y2="424.7578"/><text fill="#000000" font-family="sans-serif" font-size="13" lengthAdjust="spacing" textLength="25" x="473" y="419.6919">new</text><rect fill="#E2E2F0" height="30.2969" rx="2.5" ry="2.5" style="stroke:#181818;stroke-width:0.5;" width="99" x="635.5" y="403.625"/><text fill="#000000" font-family="sans-serif" font-size="14" lengthAdjust="spacing" textLength="85" x="642.5" y="423.6201">:UserBuilder</text><polygon fill="#181818" points="732.5,462.0547,742.5,466.0547,732.5,470.0547,736.5,466.0547" style="stroke:#181818;stroke-width:1.0;"/><line style="stroke:#181818;stroke-width:1.0;" x1="690" x2="738.5" y1="466.0547" y2="466.0547"/><text fill="#000000" font-family="sans-serif" font-size="13" lengthAdjust="spacing" textLength="25" x="697" y="460.9888">new</text><rect fill="#E2E2F0" height="30.2969" rx="2.5" ry="2.5" style="stroke:#181818;stroke-width:0.5;" width="51" x="744.5" y="444.9219"/><text fill="#000000" font-family="sans-serif" font-size="14" lengthAdjust="spacing" textLength="37" x="751.5" y="464.917">:User</text><polygon fill="#181818" points="477,503.3516,467,507.3516,477,511.3516,473,507.3516" style="stroke:#181818;stroke-width:1.0;"/><line style="stroke:#181818;stroke-width:1.0;stroke-dasharray:2.0,2.0;" x1="471" x2="684" y1="507.3516" y2="507.3516"/><text fill="#000000" font-family="sans-serif" font-size="13" lengthAdjust="spacing" textLength="34" x="483" y="502.2856">:User</text><polygon fill="#181818" points="569,532.4844,579,536.4844,569,540.4844,573,536.4844" style="stroke:#181818;stroke-width:1.0;"/><line style="stroke:#181818;stroke-width:1.0;" x1="466" x2="575" y1="536.4844" y2="536.4844"/><text fill="#000000" font-family="sans-serif" font-size="13" lengthAdjust="spacing" textLength="34" x="473" y="531.4185">:User</text><polygon fill="#181818" points="477,561.6172,467,565.6172,477,569.6172,473,565.6172" style="stroke:#181818;stroke-width:1.0;"/><line style="stroke:#181818;stroke-width:1.0;stroke-dasharray:2.0,2.0;" x1="471" x2="585" y1="565.6172" y2="565.6172"/><text fill="#000000" font-family="sans-serif" font-size="13" lengthAdjust="spacing" textLength="53" x="483" y="560.5513">Success</text><polygon fill="#181818" points="205,590.75,195,594.75,205,598.75,201,594.75" style="stroke:#181818;stroke-width:1.0;"/><line style="stroke:#181818;stroke-width:1.0;stroke-dasharray:2.0,2.0;" x1="199" x2="460" y1="594.75" y2="594.75"/><text fill="#000000" font-family="sans-serif" font-size="13" lengthAdjust="spacing" textLength="39" x="211" y="589.6841">userId</text><polygon fill="#181818" points="55,619.8828,45,623.8828,55,627.8828,51,623.8828" style="stroke:#181818;stroke-width:1.0;"/><line style="stroke:#181818;stroke-width:1.0;stroke-dasharray:2.0,2.0;" x1="49" x2="188" y1="623.8828" y2="623.8828"/><text fill="#000000" font-family="sans-serif" font-size="13" lengthAdjust="spacing" textLength="116" x="61" y="618.8169">Success message</text><line style="stroke:#000000;stroke-width:1.0;stroke-dasharray:2.0,2.0;" x1="10" x2="805.5" y1="632.8828" y2="632.8828"/><text fill="#000000" font-family="sans-serif" font-size="11" font-weight="bold" lengthAdjust="spacing" textLength="101" x="15" y="643.0933">[Already in use]</text><polygon fill="#181818" points="328,663.8203,318,667.8203,328,671.8203,324,667.8203" style="stroke:#181818;stroke-width:1.0;"/><line style="stroke:#181818;stroke-width:1.0;stroke-dasharray:2.0,2.0;" x1="322" x2="585" y1="667.8203" y2="667.8203"/><text fill="#000000" font-family="sans-serif" font-size="13" lengthAdjust="spacing" textLength="28" x="334" y="662.7544">True</text><polygon fill="#181818" points="200,692.9531,190,696.9531,200,700.9531,196,696.9531" style="stroke:#181818;stroke-width:1.0;"/><line style="stroke:#181818;stroke-width:1.0;stroke-dasharray:2.0,2.0;" x1="194" x2="311" y1="696.9531" y2="696.9531"/><text fill="#000000" font-family="sans-serif" font-size="13" lengthAdjust="spacing" textLength="94" x="206" y="691.8872">Error message</text><polygon fill="#181818" points="55,722.0859,45,726.0859,55,730.0859,51,726.0859" style="stroke:#181818;stroke-width:1.0;"/><line style="stroke:#181818;stroke-width:1.0;stroke-dasharray:2.0,2.0;" x1="49" x2="188" y1="726.0859" y2="726.0859"/><text fill="#000000" font-family="sans-serif" font-size="13" lengthAdjust="spacing" textLength="29" x="61" y="721.02">alert</text><!--MD5=[5338e3afeb63455df62d97972629c435]
@startuml
autoactivate on

actor User
participant Website
participant ":EmailResource"
participant ":UserCrudResource"
participant ":UserDao"

activate User

User -> Website :Register
User <- - Website :Register Page
User -> Website :Details
Website -> ":EmailResource" :/check_email
":EmailResource" -> ":UserDao" :isEmailInUse(email)

alt Not in use
  ":EmailResource" <- - ":UserDao" :False
  Website -> ":UserCrudResource" :register()
  ":UserCrudResource" -> ":UserCrudResource" : Validation
  ":UserCrudResource" <- - ":UserCrudResource" : Validation Success
  
  create ":UserBuilder"
  ":UserCrudResource" -> ":UserBuilder" :new

  create ":User"
  ":UserBuilder" -> ":User" :new

  ":UserCrudResource" <- - ":UserBuilder" : :User

  ":UserCrudResource" -> ":UserDao" : :User
  ":UserCrudResource" <- - ":UserDao" : Success
  Website <- - ":UserCrudResource" :userId
  User <- - Website :Success message

else Already in use
  ":EmailResource" <- - ":UserDao" :True
  Website <- - ":EmailResource" :Error message
  User <- - Website :alert
end

deactivate User

@enduml

PlantUML version 1.2022.7(Mon Aug 22 22:31:30 IST 2022)
(GPL source distribution)
Java Runtime: OpenJDK Runtime Environment
JVM: OpenJDK 64-Bit Server VM
Default Encoding: UTF-8
Language: en
Country: IN
--></g></svg>