<?xml version="1.0" encoding="UTF-8" standalone="no"?><svg xmlns="http://www.w3.org/2000/svg" xmlns:xlink="http://www.w3.org/1999/xlink" contentStyleType="text/css" height="715px" preserveAspectRatio="none" style="width:791px;height:715px;background:#FFFFFF;" version="1.1" viewBox="0 0 791 715" width="791px" zoomAndPan="magnify"><defs/><g><rect fill="#FFFFFF" height="504.2891" style="stroke:#181818;stroke-width:1.0;" width="10" x="244" y="112.4297"/><rect fill="#FFFFFF" height="29.1328" style="stroke:#181818;stroke-width:1.0;" width="10" x="394" y="141.5625"/><rect fill="#FFFFFF" height="29.1328" style="stroke:#181818;stroke-width:1.0;" width="10" x="394" y="199.8281"/><rect fill="#FFFFFF" height="29.1328" style="stroke:#181818;stroke-width:1.0;" width="10" x="394" y="258.0938"/><rect fill="#FFFFFF" height="271.2266" style="stroke:#181818;stroke-width:1.0;" width="10" x="394" y="316.3594"/><rect fill="#FFFFFF" height="212.9609" style="stroke:#181818;stroke-width:1.0;" width="10" x="514.5" y="345.4922"/><rect fill="#FFFFFF" height="40.1328" style="stroke:#181818;stroke-width:1.0;" width="10" x="519.5" y="382.625"/><rect fill="#FFFFFF" height="29.1328" style="stroke:#181818;stroke-width:1.0;" width="10" x="679.5" y="500.1875"/><rect fill="#FFFFFF" height="156.8281" style="stroke:#181818;stroke-width:1.0;" width="10" x="754.5" y="468.8906"/><line style="stroke:#181818;stroke-width:0.5;stroke-dasharray:5.0,5.0;" x1="24" x2="24" y1="81.2969" y2="634.7188"/><line style="stroke:#181818;stroke-width:0.5;stroke-dasharray:5.0,5.0;" x1="248.5" x2="248.5" y1="81.2969" y2="634.7188"/><line style="stroke:#181818;stroke-width:0.5;stroke-dasharray:5.0,5.0;" x1="399" x2="399" y1="81.2969" y2="634.7188"/><line style="stroke:#181818;stroke-width:0.5;stroke-dasharray:5.0,5.0;" x1="519" x2="519" y1="81.2969" y2="634.7188"/><line style="stroke:#181818;stroke-width:0.5;stroke-dasharray:5.0,5.0;" x1="684" x2="684" y1="81.2969" y2="634.7188"/><line style="stroke:#181818;stroke-width:0.5;stroke-dasharray:5.0,5.0;" x1="759" x2="759" y1="468.4063" y2="634.7188"/><text fill="#000000" font-family="sans-serif" font-size="14" lengthAdjust="spacing" textLength="32" x="5" y="77.9951">User</text><ellipse cx="24" cy="13.5" fill="#E2E2F0" rx="8" ry="8" style="stroke:#181818;stroke-width:0.5;"/><path d="M24,21.5 L24,48.5 M11,29.5 L37,29.5 M24,48.5 L11,63.5 M24,48.5 L37,63.5 " fill="none" style="stroke:#181818;stroke-width:0.5;"/><text fill="#000000" font-family="sans-serif" font-size="14" lengthAdjust="spacing" textLength="32" x="5" y="646.7139">User</text><ellipse cx="24" cy="658.5156" fill="#E2E2F0" rx="8" ry="8" style="stroke:#181818;stroke-width:0.5;"/><path d="M24,666.5156 L24,693.5156 M11,674.5156 L37,674.5156 M24,693.5156 L11,708.5156 M24,693.5156 L37,708.5156 " fill="none" style="stroke:#181818;stroke-width:0.5;"/><text fill="#000000" font-family="sans-serif" font-size="14" lengthAdjust="spacing" textLength="43" x="224.5" y="77.9951">Admin</text><ellipse cx="249" cy="13.5" fill="#E2E2F0" rx="8" ry="8" style="stroke:#181818;stroke-width:0.5;"/><path d="M249,21.5 L249,48.5 M236,29.5 L262,29.5 M249,48.5 L236,63.5 M249,48.5 L262,63.5 " fill="none" style="stroke:#181818;stroke-width:0.5;"/><text fill="#000000" font-family="sans-serif" font-size="14" lengthAdjust="spacing" textLength="43" x="224.5" y="646.7139">Admin</text><ellipse cx="249" cy="658.5156" fill="#E2E2F0" rx="8" ry="8" style="stroke:#181818;stroke-width:0.5;"/><path d="M249,666.5156 L249,693.5156 M236,674.5156 L262,674.5156 M249,693.5156 L236,708.5156 M249,693.5156 L262,708.5156 " fill="none" style="stroke:#181818;stroke-width:0.5;"/><rect fill="#E2E2F0" height="30.2969" rx="2.5" ry="2.5" style="stroke:#181818;stroke-width:0.5;" width="70" x="364" y="50"/><text fill="#000000" font-family="sans-serif" font-size="14" lengthAdjust="spacing" textLength="56" x="371" y="69.9951">Website</text><rect fill="#E2E2F0" height="30.2969" rx="2.5" ry="2.5" style="stroke:#181818;stroke-width:0.5;" width="70" x="364" y="633.7188"/><text fill="#000000" font-family="sans-serif" font-size="14" lengthAdjust="spacing" textLength="56" x="371" y="653.7139">Website</text><rect fill="#E2E2F0" height="30.2969" rx="2.5" ry="2.5" style="stroke:#181818;stroke-width:0.5;" width="151" x="444" y="50"/><text fill="#000000" font-family="sans-serif" font-size="14" lengthAdjust="spacing" textLength="137" x="451" y="69.9951">:UserCrudResource</text><rect fill="#E2E2F0" height="30.2969" rx="2.5" ry="2.5" style="stroke:#181818;stroke-width:0.5;" width="151" x="444" y="633.7188"/><text fill="#000000" font-family="sans-serif" font-size="14" lengthAdjust="spacing" textLength="137" x="451" y="653.7139">:UserCrudResource</text><rect fill="#E2E2F0" height="30.2969" rx="2.5" ry="2.5" style="stroke:#181818;stroke-width:0.5;" width="79" x="645" y="50"/><text fill="#000000" font-family="sans-serif" font-size="14" lengthAdjust="spacing" textLength="65" x="652" y="69.9951">:UserDao</text><rect fill="#E2E2F0" height="30.2969" rx="2.5" ry="2.5" style="stroke:#181818;stroke-width:0.5;" width="79" x="645" y="633.7188"/><text fill="#000000" font-family="sans-serif" font-size="14" lengthAdjust="spacing" textLength="65" x="652" y="653.7139">:UserDao</text><rect fill="#E2E2F0" height="30.2969" rx="2.5" ry="2.5" style="stroke:#181818;stroke-width:0.5;" width="51" x="734" y="633.7188"/><text fill="#000000" font-family="sans-serif" font-size="14" lengthAdjust="spacing" textLength="37" x="741" y="653.7139">:User</text><rect fill="#FFFFFF" height="504.2891" style="stroke:#181818;stroke-width:1.0;" width="10" x="244" y="112.4297"/><rect fill="#FFFFFF" height="29.1328" style="stroke:#181818;stroke-width:1.0;" width="10" x="394" y="141.5625"/><rect fill="#FFFFFF" height="29.1328" style="stroke:#181818;stroke-width:1.0;" width="10" x="394" y="199.8281"/><rect fill="#FFFFFF" height="29.1328" style="stroke:#181818;stroke-width:1.0;" width="10" x="394" y="258.0938"/><rect fill="#FFFFFF" height="271.2266" style="stroke:#181818;stroke-width:1.0;" width="10" x="394" y="316.3594"/><rect fill="#FFFFFF" height="212.9609" style="stroke:#181818;stroke-width:1.0;" width="10" x="514.5" y="345.4922"/><rect fill="#FFFFFF" height="40.1328" style="stroke:#181818;stroke-width:1.0;" width="10" x="519.5" y="382.625"/><rect fill="#FFFFFF" height="29.1328" style="stroke:#181818;stroke-width:1.0;" width="10" x="679.5" y="500.1875"/><rect fill="#FFFFFF" height="156.8281" style="stroke:#181818;stroke-width:1.0;" width="10" x="754.5" y="468.8906"/><polygon fill="#181818" points="232,108.4297,242,112.4297,232,116.4297,236,112.4297" style="stroke:#181818;stroke-width:1.0;"/><line style="stroke:#181818;stroke-width:1.0;" x1="24" x2="238" y1="112.4297" y2="112.4297"/><text fill="#000000" font-family="sans-serif" font-size="13" lengthAdjust="spacing" textLength="185" x="31" y="107.3638">Physically ask for registration</text><polygon fill="#181818" points="382,137.5625,392,141.5625,382,145.5625,386,141.5625" style="stroke:#181818;stroke-width:1.0;"/><line style="stroke:#181818;stroke-width:1.0;" x1="254" x2="388" y1="141.5625" y2="141.5625"/><text fill="#000000" font-family="sans-serif" font-size="13" lengthAdjust="spacing" textLength="34" x="261" y="136.4966">Login</text><polygon fill="#181818" points="265,166.6953,255,170.6953,265,174.6953,261,170.6953" style="stroke:#181818;stroke-width:1.0;"/><line style="stroke:#181818;stroke-width:1.0;stroke-dasharray:2.0,2.0;" x1="259" x2="398" y1="170.6953" y2="170.6953"/><text fill="#000000" font-family="sans-serif" font-size="13" lengthAdjust="spacing" textLength="70" x="271" y="165.6294">Login Page</text><polygon fill="#181818" points="382,195.8281,392,199.8281,382,203.8281,386,199.8281" style="stroke:#181818;stroke-width:1.0;"/><line style="stroke:#181818;stroke-width:1.0;" x1="254" x2="388" y1="199.8281" y2="199.8281"/><text fill="#000000" font-family="sans-serif" font-size="13" lengthAdjust="spacing" textLength="53" x="261" y="194.7622">Settings</text><polygon fill="#181818" points="265,224.9609,255,228.9609,265,232.9609,261,228.9609" style="stroke:#181818;stroke-width:1.0;"/><line style="stroke:#181818;stroke-width:1.0;stroke-dasharray:2.0,2.0;" x1="259" x2="398" y1="228.9609" y2="228.9609"/><text fill="#000000" font-family="sans-serif" font-size="13" lengthAdjust="spacing" textLength="89" x="271" y="223.895">Settings Page</text><polygon fill="#181818" points="382,254.0938,392,258.0938,382,262.0938,386,258.0938" style="stroke:#181818;stroke-width:1.0;"/><line style="stroke:#181818;stroke-width:1.0;" x1="254" x2="388" y1="258.0938" y2="258.0938"/><text fill="#000000" font-family="sans-serif" font-size="13" lengthAdjust="spacing" textLength="59" x="261" y="253.0278">User.Add</text><polygon fill="#181818" points="265,283.2266,255,287.2266,265,291.2266,261,287.2266" style="stroke:#181818;stroke-width:1.0;"/><line style="stroke:#181818;stroke-width:1.0;stroke-dasharray:2.0,2.0;" x1="259" x2="398" y1="287.2266" y2="287.2266"/><text fill="#000000" font-family="sans-serif" font-size="13" lengthAdjust="spacing" textLength="59" x="271" y="282.1606">User.Add</text><polygon fill="#181818" points="382,312.3594,392,316.3594,382,320.3594,386,316.3594" style="stroke:#181818;stroke-width:1.0;"/><line style="stroke:#181818;stroke-width:1.0;" x1="254" x2="388" y1="316.3594" y2="316.3594"/><text fill="#000000" font-family="sans-serif" font-size="13" lengthAdjust="spacing" textLength="52" x="261" y="311.2935">Register</text><polygon fill="#181818" points="502.5,341.4922,512.5,345.4922,502.5,349.4922,506.5,345.4922" style="stroke:#181818;stroke-width:1.0;"/><line style="stroke:#181818;stroke-width:1.0;" x1="404" x2="508.5" y1="345.4922" y2="345.4922"/><text fill="#000000" font-family="sans-serif" font-size="13" lengthAdjust="spacing" textLength="59" x="411" y="340.4263">register()</text><line style="stroke:#181818;stroke-width:1.0;" x1="524.5" x2="571.5" y1="369.625" y2="369.625"/><line style="stroke:#181818;stroke-width:1.0;" x1="571.5" x2="571.5" y1="369.625" y2="382.625"/><line style="stroke:#181818;stroke-width:1.0;" x1="530.5" x2="571.5" y1="382.625" y2="382.625"/><polygon fill="#181818" points="540.5,378.625,530.5,382.625,540.5,386.625,536.5,382.625" style="stroke:#181818;stroke-width:1.0;"/><text fill="#000000" font-family="sans-serif" font-size="13" lengthAdjust="spacing" textLength="141" x="536.5" y="364.5591">Check Admin privilege</text><line style="stroke:#181818;stroke-width:1.0;stroke-dasharray:2.0,2.0;" x1="487.5" x2="529.5" y1="421.7578" y2="421.7578"/><line style="stroke:#181818;stroke-width:1.0;stroke-dasharray:2.0,2.0;" x1="487.5" x2="487.5" y1="421.7578" y2="434.7578"/><line style="stroke:#181818;stroke-width:1.0;stroke-dasharray:2.0,2.0;" x1="487.5" x2="534.5" y1="434.7578" y2="434.7578"/><polygon fill="#181818" points="514.5,430.7578,524.5,434.7578,514.5,438.7578,518.5,434.7578" style="stroke:#181818;stroke-width:1.0;"/><text fill="#000000" font-family="sans-serif" font-size="13" lengthAdjust="spacing" textLength="53" x="476.5" y="416.6919">Success</text><polygon fill="#181818" points="722,454.8906,732,458.8906,722,462.8906,726,458.8906" style="stroke:#181818;stroke-width:1.0;"/><line style="stroke:#181818;stroke-width:1.0;" x1="524.5" x2="728" y1="458.8906" y2="458.8906"/><text fill="#000000" font-family="sans-serif" font-size="13" lengthAdjust="spacing" textLength="25" x="531.5" y="453.8247">new</text><rect fill="#E2E2F0" height="30.2969" rx="2.5" ry="2.5" style="stroke:#181818;stroke-width:0.5;" width="51" x="734" y="437.7578"/><text fill="#000000" font-family="sans-serif" font-size="14" lengthAdjust="spacing" textLength="37" x="741" y="457.7529">:User</text><polygon fill="#181818" points="667.5,496.1875,677.5,500.1875,667.5,504.1875,671.5,500.1875" style="stroke:#181818;stroke-width:1.0;"/><line style="stroke:#181818;stroke-width:1.0;" x1="524.5" x2="673.5" y1="500.1875" y2="500.1875"/><text fill="#000000" font-family="sans-serif" font-size="13" lengthAdjust="spacing" textLength="34" x="531.5" y="495.1216">:User</text><polygon fill="#181818" points="535.5,525.3203,525.5,529.3203,535.5,533.3203,531.5,529.3203" style="stroke:#181818;stroke-width:1.0;"/><line style="stroke:#181818;stroke-width:1.0;stroke-dasharray:2.0,2.0;" x1="529.5" x2="683.5" y1="529.3203" y2="529.3203"/><text fill="#000000" font-family="sans-serif" font-size="13" lengthAdjust="spacing" textLength="53" x="541.5" y="524.2544">Success</text><polygon fill="#181818" points="415,554.4531,405,558.4531,415,562.4531,411,558.4531" style="stroke:#181818;stroke-width:1.0;"/><line style="stroke:#181818;stroke-width:1.0;stroke-dasharray:2.0,2.0;" x1="409" x2="518.5" y1="558.4531" y2="558.4531"/><text fill="#000000" font-family="sans-serif" font-size="13" lengthAdjust="spacing" textLength="39" x="421" y="553.3872">userId</text><polygon fill="#181818" points="265,583.5859,255,587.5859,265,591.5859,261,587.5859" style="stroke:#181818;stroke-width:1.0;"/><line style="stroke:#181818;stroke-width:1.0;stroke-dasharray:2.0,2.0;" x1="259" x2="398" y1="587.5859" y2="587.5859"/><text fill="#000000" font-family="sans-serif" font-size="13" lengthAdjust="spacing" textLength="116" x="271" y="582.52">Success message</text><polygon fill="#181818" points="35,612.7188,25,616.7188,35,620.7188,31,616.7188" style="stroke:#181818;stroke-width:1.0;"/><line style="stroke:#181818;stroke-width:1.0;stroke-dasharray:2.0,2.0;" x1="29" x2="248" y1="616.7188" y2="616.7188"/><text fill="#000000" font-family="sans-serif" font-size="13" lengthAdjust="spacing" textLength="196" x="41" y="611.6528">Physically notify about success</text><!--MD5=[4b3691a32b3d9c40a6770861bd1bb118]
@startuml
autoactivate on

actor User
actor Admin
participant Website
participant ":UserCrudResource"
participant ":UserDao"

User -> Admin :Physically ask for registration
Admin -> Website :Login
Admin <- - Website :Login Page
Admin -> Website :Settings
Admin <- - Website :Settings Page
Admin -> Website :User.Add
Admin <- - Website :User.Add
Admin -> Website :Register
Website -> ":UserCrudResource" :register()

":UserCrudResource" -> ":UserCrudResource" : Check Admin privilege
":UserCrudResource" <- - ":UserCrudResource" : Success

create ":User"
":UserCrudResource" -> ":User" :new

":UserCrudResource" -> ":UserDao" : :User
":UserCrudResource" <- - ":UserDao" : Success

Website <- - ":UserCrudResource" :userId
Admin <- - Website :Success message
User <- - Admin :Physically notify about success

@enduml

PlantUML version 1.2022.7(Mon Aug 22 22:31:30 IST 2022)
(GPL source distribution)
Java Runtime: OpenJDK Runtime Environment
JVM: OpenJDK 64-Bit Server VM
Default Encoding: UTF-8
Language: en
Country: IN
--></g></svg>