<?xml version="1.0" encoding="UTF-8" standalone="no"?><svg xmlns="http://www.w3.org/2000/svg" xmlns:xlink="http://www.w3.org/1999/xlink" contentStyleType="text/css" height="618px" preserveAspectRatio="none" style="width:1171px;height:618px;background:#FFFFFF;" version="1.1" viewBox="0 0 1171 618" width="1171px" zoomAndPan="magnify"><defs/><g><!--MD5=[4ebba41136f4ea4aa27bc7c1f6286be7]
class OnlineSearchStrategy--><g id="elem_OnlineSearchStrategy"><rect codeLine="2" fill="#F1F1F1" height="64.2969" id="OnlineSearchStrategy" rx="2.5" ry="2.5" style="stroke:#181818;stroke-width:0.5;" width="394" x="221" y="259"/><ellipse cx="338.75" cy="275" fill="#B4A7E5" rx="11" ry="11" style="stroke:#181818;stroke-width:1.0;"/><path d="M334.6719,270.7656 L334.6719,268.6094 L342.0625,268.6094 L342.0625,270.7656 L339.5938,270.7656 L339.5938,278.8438 L342.0625,278.8438 L342.0625,281 L334.6719,281 L334.6719,278.8438 L337.1406,278.8438 L337.1406,270.7656 L334.6719,270.7656 Z " fill="#000000"/><text fill="#000000" font-family="sans-serif" font-size="14" font-style="italic" lengthAdjust="spacing" textLength="150" x="359.25" y="279.8467">OnlineSearchStrategy</text><line style="stroke:#181818;stroke-width:0.5;" x1="222" x2="614" y1="291" y2="291"/><line style="stroke:#181818;stroke-width:0.5;" x1="222" x2="614" y1="299" y2="299"/><ellipse cx="232" cy="312.6484" fill="#84BE84" rx="3" ry="3" style="stroke:#038048;stroke-width:1.0;"/><text fill="#000000" font-family="sans-serif" font-size="14" lengthAdjust="spacing" textLength="368" x="241" y="315.9951">fetchResults(criteria :OnlineSearchCriteria) :JSONArray</text></g><!--MD5=[cd0d0e1cc07ee354ae0df6a0c98b6d4b]
class SpotifySearchStrategy--><g id="elem_SpotifySearchStrategy"><rect codeLine="6" fill="#F1F1F1" height="227.2656" id="SpotifySearchStrategy" rx="2.5" ry="2.5" style="stroke:#181818;stroke-width:0.5;" width="394" x="7" y="384"/><ellipse cx="124.25" cy="400" fill="#ADD1B2" rx="11" ry="11" style="stroke:#181818;stroke-width:1.0;"/><path d="M127.2188,405.6406 Q126.6406,405.9375 126,406.0781 Q125.3594,406.2344 124.6563,406.2344 Q122.1563,406.2344 120.8281,404.5938 Q119.5156,402.9375 119.5156,399.8125 Q119.5156,396.6875 120.8281,395.0313 Q122.1563,393.375 124.6563,393.375 Q125.3594,393.375 126,393.5313 Q126.6563,393.6875 127.2188,393.9844 L127.2188,396.7031 Q126.5938,396.125 126,395.8594 Q125.4063,395.5781 124.7813,395.5781 Q123.4375,395.5781 122.75,396.6563 Q122.0625,397.7188 122.0625,399.8125 Q122.0625,401.9063 122.75,402.9844 Q123.4375,404.0469 124.7813,404.0469 Q125.4063,404.0469 126,403.7813 Q126.5938,403.5 127.2188,402.9219 L127.2188,405.6406 Z " fill="#000000"/><text fill="#000000" font-family="sans-serif" font-size="14" lengthAdjust="spacing" textLength="151" x="144.75" y="404.8467">SpotifySearchStrategy</text><line style="stroke:#181818;stroke-width:0.5;" x1="8" x2="400" y1="416" y2="416"/><rect fill="none" height="6" style="stroke:#C82930;stroke-width:1.0;" width="6" x="15" y="426.6484"/><text fill="#000000" font-family="sans-serif" font-size="14" lengthAdjust="spacing" textLength="142" x="27" y="432.9951">accessToken: String</text><rect fill="none" height="6" style="stroke:#C82930;stroke-width:1.0;" width="6" x="15" y="442.9453"/><text fill="#000000" font-family="sans-serif" font-size="14" lengthAdjust="spacing" textLength="53" x="27" y="449.292">limit: int</text><rect fill="none" height="6" style="stroke:#C82930;stroke-width:1.0;" width="6" x="15" y="459.2422"/><text fill="#000000" font-family="sans-serif" font-size="14" lengthAdjust="spacing" textLength="65" x="27" y="465.5889">offset: int</text><rect fill="none" height="6" style="stroke:#C82930;stroke-width:1.0;" width="6" x="15" y="475.5391"/><text fill="#000000" font-family="sans-serif" font-size="14" lengthAdjust="spacing" textLength="97" x="27" y="481.8857">market: String</text><rect fill="none" height="6" style="stroke:#C82930;stroke-width:1.0;" width="6" x="15" y="491.8359"/><text fill="#000000" font-family="sans-serif" font-size="14" lengthAdjust="spacing" textLength="131" x="27" y="498.1826">TOKEN_URL: String</text><rect fill="none" height="6" style="stroke:#C82930;stroke-width:1.0;" width="6" x="15" y="508.1328"/><text fill="#000000" font-family="sans-serif" font-size="14" lengthAdjust="spacing" textLength="118" x="27" y="514.4795">CLIENT_ID: String</text><rect fill="none" height="6" style="stroke:#C82930;stroke-width:1.0;" width="6" x="15" y="524.4297"/><text fill="#000000" font-family="sans-serif" font-size="14" lengthAdjust="spacing" textLength="160" x="27" y="530.7764">CLIENT_SECRET: String</text><line style="stroke:#181818;stroke-width:0.5;" x1="8" x2="400" y1="538.0781" y2="538.0781"/><ellipse cx="18" cy="551.7266" fill="#84BE84" rx="3" ry="3" style="stroke:#038048;stroke-width:1.0;"/><text fill="#000000" font-family="sans-serif" font-size="14" lengthAdjust="spacing" textLength="241" x="27" y="555.0732">encodeQuery(query: String): String</text><ellipse cx="18" cy="568.0234" fill="#84BE84" rx="3" ry="3" style="stroke:#038048;stroke-width:1.0;"/><text fill="#000000" font-family="sans-serif" font-size="14" lengthAdjust="spacing" textLength="368" x="27" y="571.3701">fetchResults(criteria: OnlineSearchCriteria): JSONArray</text><ellipse cx="18" cy="584.3203" fill="#84BE84" rx="3" ry="3" style="stroke:#038048;stroke-width:1.0;"/><text fill="#000000" font-family="sans-serif" font-size="14" lengthAdjust="spacing" textLength="267" x="27" y="587.667">performHttpRequest(url: String): String</text><ellipse cx="18" cy="600.6172" fill="#84BE84" rx="3" ry="3" style="stroke:#038048;stroke-width:1.0;"/><text fill="#000000" font-family="sans-serif" font-size="14" lengthAdjust="spacing" textLength="184" x="27" y="603.9639">obtainAccessToken(): void</text></g><!--MD5=[a6a1ecd5d53d20d40f88334f1c72b734]
class iTunesSearchStrategy--><g id="elem_iTunesSearchStrategy"><rect codeLine="21" fill="#F1F1F1" height="96.8906" id="iTunesSearchStrategy" rx="2.5" ry="2.5" style="stroke:#181818;stroke-width:0.5;" width="394" x="436" y="449"/><ellipse cx="552.75" cy="465" fill="#ADD1B2" rx="11" ry="11" style="stroke:#181818;stroke-width:1.0;"/><path d="M555.7188,470.6406 Q555.1406,470.9375 554.5,471.0781 Q553.8594,471.2344 553.1563,471.2344 Q550.6563,471.2344 549.3281,469.5938 Q548.0156,467.9375 548.0156,464.8125 Q548.0156,461.6875 549.3281,460.0313 Q550.6563,458.375 553.1563,458.375 Q553.8594,458.375 554.5,458.5313 Q555.1563,458.6875 555.7188,458.9844 L555.7188,461.7031 Q555.0938,461.125 554.5,460.8594 Q553.9063,460.5781 553.2813,460.5781 Q551.9375,460.5781 551.25,461.6563 Q550.5625,462.7188 550.5625,464.8125 Q550.5625,466.9063 551.25,467.9844 Q551.9375,469.0469 553.2813,469.0469 Q553.9063,469.0469 554.5,468.7813 Q555.0938,468.5 555.7188,467.9219 L555.7188,470.6406 Z " fill="#000000"/><text fill="#000000" font-family="sans-serif" font-size="14" lengthAdjust="spacing" textLength="152" x="573.25" y="469.8467">iTunesSearchStrategy</text><line style="stroke:#181818;stroke-width:0.5;" x1="437" x2="829" y1="481" y2="481"/><line style="stroke:#181818;stroke-width:0.5;" x1="437" x2="829" y1="489" y2="489"/><ellipse cx="447" cy="502.6484" fill="#84BE84" rx="3" ry="3" style="stroke:#038048;stroke-width:1.0;"/><text fill="#000000" font-family="sans-serif" font-size="14" lengthAdjust="spacing" textLength="241" x="456" y="505.9951">encodeQuery(query: String): String</text><ellipse cx="447" cy="518.9453" fill="#84BE84" rx="3" ry="3" style="stroke:#038048;stroke-width:1.0;"/><text fill="#000000" font-family="sans-serif" font-size="14" lengthAdjust="spacing" textLength="368" x="456" y="522.292">fetchResults(criteria: OnlineSearchCriteria): JSONArray</text><ellipse cx="447" cy="535.2422" fill="#84BE84" rx="3" ry="3" style="stroke:#038048;stroke-width:1.0;"/><text fill="#000000" font-family="sans-serif" font-size="14" lengthAdjust="spacing" textLength="267" x="456" y="538.5889">performHttpRequest(url: String): String</text></g><!--MD5=[c887fed489b428c5382c9d2552f7bcb3]
class OnlineSearchContext--><g id="elem_OnlineSearchContext"><rect codeLine="27" fill="#F1F1F1" height="96.8906" id="OnlineSearchContext" rx="2.5" ry="2.5" style="stroke:#181818;stroke-width:0.5;" width="462" x="187" y="45.5"/><ellipse cx="340.75" cy="61.5" fill="#ADD1B2" rx="11" ry="11" style="stroke:#181818;stroke-width:1.0;"/><path d="M343.7188,67.1406 Q343.1406,67.4375 342.5,67.5781 Q341.8594,67.7344 341.1563,67.7344 Q338.6563,67.7344 337.3281,66.0938 Q336.0156,64.4375 336.0156,61.3125 Q336.0156,58.1875 337.3281,56.5313 Q338.6563,54.875 341.1563,54.875 Q341.8594,54.875 342.5,55.0313 Q343.1563,55.1875 343.7188,55.4844 L343.7188,58.2031 Q343.0938,57.625 342.5,57.3594 Q341.9063,57.0781 341.2813,57.0781 Q339.9375,57.0781 339.25,58.1563 Q338.5625,59.2188 338.5625,61.3125 Q338.5625,63.4063 339.25,64.4844 Q339.9375,65.5469 341.2813,65.5469 Q341.9063,65.5469 342.5,65.2813 Q343.0938,65 343.7188,64.4219 L343.7188,67.1406 Z " fill="#000000"/><text fill="#000000" font-family="sans-serif" font-size="14" lengthAdjust="spacing" textLength="146" x="361.25" y="66.3467">OnlineSearchContext</text><line style="stroke:#181818;stroke-width:0.5;" x1="188" x2="648" y1="77.5" y2="77.5"/><rect fill="none" height="6" style="stroke:#C82930;stroke-width:1.0;" width="6" x="195" y="88.1484"/><text fill="#000000" font-family="sans-serif" font-size="14" lengthAdjust="spacing" textLength="262" x="207" y="94.4951">searchStrategy: OnlineSearchStrategy</text><line style="stroke:#181818;stroke-width:0.5;" x1="188" x2="648" y1="101.7969" y2="101.7969"/><ellipse cx="198" cy="115.4453" fill="#84BE84" rx="3" ry="3" style="stroke:#038048;stroke-width:1.0;"/><text fill="#000000" font-family="sans-serif" font-size="14" lengthAdjust="spacing" textLength="436" x="207" y="118.792">setSearchStrategy(searchStrategy: OnlineSearchStrategy): void</text><ellipse cx="198" cy="131.7422" fill="#84BE84" rx="3" ry="3" style="stroke:#038048;stroke-width:1.0;"/><text fill="#000000" font-family="sans-serif" font-size="14" lengthAdjust="spacing" textLength="355" x="207" y="135.0889">fetchResults(criteria: OnlineSearchCriteria): List&lt;?&gt;</text></g><g id="elem_GMN9"><path d="M684,6 L684,90 L649.26,94 L684,98 L684,182.4609 A0,0 0 0 0 684,182.4609 L1164,182.4609 A0,0 0 0 0 1164,182.4609 L1164,16 L1154,6 L684,6 A0,0 0 0 0 684,6 " fill="#FEFFDD" style="stroke:#181818;stroke-width:0.5;"/><path d="M1154,6 L1154,16 L1164,16 L1154,6 " fill="#FEFFDD" style="stroke:#181818;stroke-width:0.5;"/><text fill="#000000" font-family="sans-serif" font-size="13" lengthAdjust="spacing" textLength="294" x="690" y="23.0669">private OnlineSearchStrategy searchStrategy;</text><text fill="#000000" font-family="sans-serif" font-size="13" lengthAdjust="spacing" textLength="4" x="690" y="38.1997"> </text><text fill="#000000" font-family="sans-serif" font-size="13" lengthAdjust="spacing" textLength="455" x="690" y="53.3325">public void setSearchStrategy(OnlineSearchStrategy searchStrategy) {</text><text fill="#000000" font-family="sans-serif" font-size="13" lengthAdjust="spacing" textLength="246" x="706" y="68.4653">this.searchStrategy = searchStrategy;</text><text fill="#000000" font-family="sans-serif" font-size="13" lengthAdjust="spacing" textLength="8" x="690" y="83.5981">}</text><text fill="#000000" font-family="sans-serif" font-size="13" lengthAdjust="spacing" textLength="4" x="690" y="98.731"> </text><text fill="#000000" font-family="sans-serif" font-size="13" lengthAdjust="spacing" textLength="375" x="690" y="113.8638">public List&lt;?&gt; fetchResults(OnlineSearchCriteria criteria) {</text><text fill="#000000" font-family="sans-serif" font-size="13" lengthAdjust="spacing" textLength="426" x="706" y="128.9966">JSONArray resultItems = this.searchStrategy.fetchResults(criteria);</text><text fill="#000000" font-family="sans-serif" font-size="13" lengthAdjust="spacing" textLength="4" x="690" y="144.1294"> </text><text fill="#000000" font-family="sans-serif" font-size="13" lengthAdjust="spacing" textLength="443" x="706" y="159.2622">// Factory Logic for creating AudioBook and Podcast object goes here.</text><text fill="#000000" font-family="sans-serif" font-size="13" lengthAdjust="spacing" textLength="8" x="690" y="174.395">}</text></g><!--MD5=[3fc86159eae81fdcc2c56dfe053401a0]
reverse link OnlineSearchStrategy to SpotifySearchStrategy--><g id="link_OnlineSearchStrategy_SpotifySearchStrategy"><path d="M370.59,337.3 C355.99,351.26 339.22,367.29 322.06,383.68 " fill="none" id="OnlineSearchStrategy-backto-SpotifySearchStrategy" style="stroke:#181818;stroke-width:1.0;stroke-dasharray:7.0,7.0;"/><polygon fill="none" points="366.2,331.82,385.5,323.06,375.87,341.94,366.2,331.82" style="stroke:#181818;stroke-width:1.0;"/></g><!--MD5=[39919647f89ea5d8179a5dff8d2faa2e]
reverse link OnlineSearchStrategy to iTunesSearchStrategy--><g id="link_OnlineSearchStrategy_iTunesSearchStrategy"><path d="M465.21,336.91 C500.03,370.03 547.32,415 582.82,448.77 " fill="none" id="OnlineSearchStrategy-backto-iTunesSearchStrategy" style="stroke:#181818;stroke-width:1.0;stroke-dasharray:7.0,7.0;"/><polygon fill="none" points="460.32,341.92,450.65,323.06,469.97,331.77,460.32,341.92" style="stroke:#181818;stroke-width:1.0;"/></g><!--MD5=[f5c4dc5c5f84170bdb51b4873515bce0]
link OnlineSearchContext to OnlineSearchStrategy--><g id="link_OnlineSearchContext_OnlineSearchStrategy"><path codeLine="33" d="M418,142.7 C418,176.92 418,222.31 418,253.62 " fill="none" id="OnlineSearchContext-to-OnlineSearchStrategy" style="stroke:#181818;stroke-width:1.0;stroke-dasharray:7.0,7.0;"/><polygon fill="#181818" points="418,258.91,422,249.91,418,253.91,414,249.91,418,258.91" style="stroke:#181818;stroke-width:1.0;"/><text fill="#000000" font-family="sans-serif" font-size="13" lengthAdjust="spacing" textLength="30" x="419" y="225.0669">uses</text></g><!--MD5=[7f6ff4eade093e71c9a128f4196c837f]
@startuml

interface OnlineSearchStrategy {
  + fetchResults(criteria :OnlineSearchCriteria) :JSONArray
}

class SpotifySearchStrategy implements OnlineSearchStrategy {
    - accessToken: String
    - limit: int
    - offset: int
    - market: String
    - TOKEN_URL: String
    - CLIENT_ID: String
    - CLIENT_SECRET: String

    + encodeQuery(query: String): String
    + fetchResults(criteria: OnlineSearchCriteria): JSONArray
    + performHttpRequest(url: String): String
    + obtainAccessToken(): void
}

class iTunesSearchStrategy implements OnlineSearchStrategy {
    + encodeQuery(query: String): String
    + fetchResults(criteria: OnlineSearchCriteria): JSONArray
    + performHttpRequest(url: String): String
}

class OnlineSearchContext {
    - searchStrategy: OnlineSearchStrategy

    + setSearchStrategy(searchStrategy: OnlineSearchStrategy): void
    + fetchResults(criteria: OnlineSearchCriteria): List<?>
}
OnlineSearchContext ..> OnlineSearchStrategy :uses

note right of OnlineSearchContext
    private OnlineSearchStrategy searchStrategy;

    public void setSearchStrategy(OnlineSearchStrategy searchStrategy) {
        this.searchStrategy = searchStrategy;
    }

    public List<?> fetchResults(OnlineSearchCriteria criteria) {
        JSONArray resultItems = this.searchStrategy.fetchResults(criteria);

        // Factory Logic for creating AudioBook and Podcast object goes here.
    }
end note
@enduml

PlantUML version 1.2022.7(Mon Aug 22 22:31:30 IST 2022)
(GPL source distribution)
Java Runtime: OpenJDK Runtime Environment
JVM: OpenJDK 64-Bit Server VM
Default Encoding: UTF-8
Language: en
Country: IN
--></g></svg>